<svg width="79" height="79" viewBox="0 0 79 79" fill="none" xmlns="http://www.w3.org/2000/svg">
<path d="M39.0731 0.946437C39.1521 0.873974 39.2734 0.873974 39.3525 0.946437L43.6163 4.85555C43.6804 4.91431 43.7744 4.92668 43.8516 4.88651L48.9819 2.21417C49.077 2.16464 49.1942 2.19604 49.2518 2.28649L52.3586 7.16597C52.4053 7.23931 52.4929 7.2756 52.5778 7.25676L58.225 6.0033C58.3296 5.98007 58.4347 6.04073 58.4669 6.143L60.205 11.6603C60.2311 11.7433 60.3063 11.801 60.3932 11.8048L66.1724 12.0556C66.2795 12.0603 66.3653 12.146 66.3699 12.2532L66.6208 18.0323C66.6246 18.1192 66.6823 18.1944 66.7652 18.2206L72.2825 19.9586C72.3848 19.9908 72.4455 20.0959 72.4222 20.2006L71.1688 25.8478C71.1499 25.9326 71.1862 26.0202 71.2596 26.0669L76.1391 29.1738C76.2295 29.2314 76.2609 29.3486 76.2114 29.4437L73.539 34.574C73.4989 34.6511 73.5112 34.7451 73.57 34.8092L77.4791 39.0731C77.5516 39.1521 77.5516 39.2734 77.4791 39.3525L73.57 43.6163C73.5112 43.6804 73.4989 43.7744 73.539 43.8516L76.2114 48.9819C76.2609 49.077 76.2295 49.1942 76.1391 49.2518L71.2596 52.3586C71.1862 52.4053 71.1499 52.4929 71.1688 52.5778L72.4222 58.225C72.4455 58.3296 72.3848 58.4347 72.2825 58.4669L66.7652 60.205C66.6823 60.2311 66.6246 60.3063 66.6208 60.3932L66.3699 66.1724C66.3653 66.2795 66.2795 66.3653 66.1724 66.3699L60.3932 66.6208C60.3063 66.6246 60.2311 66.6823 60.205 66.7652L58.4669 72.2825C58.4347 72.3848 58.3296 72.4455 58.225 72.4222L52.5778 71.1688C52.4929 71.1499 52.4053 71.1862 52.3586 71.2596L49.2518 76.1391C49.1942 76.2295 49.077 76.2609 48.9819 76.2114L43.8516 73.539C43.7744 73.4989 43.6804 73.5112 43.6163 73.57L39.3525 77.4791C39.2734 77.5516 39.1521 77.5516 39.0731 77.4791L34.8092 73.57C34.7451 73.5112 34.6511 73.4989 34.574 73.539L29.4437 76.2114C29.3486 76.2609 29.2314 76.2295 29.1738 76.1391L26.0669 71.2596C26.0202 71.1862 25.9326 71.1499 25.8478 71.1688L20.2006 72.4222C20.0959 72.4455 19.9908 72.3848 19.9586 72.2825L18.2206 66.7652C18.1944 66.6823 18.1192 66.6246 18.0323 66.6208L12.2532 66.3699C12.146 66.3653 12.0603 66.2795 12.0556 66.1724L11.8048 60.3932C11.801 60.3063 11.7433 60.2311 11.6603 60.205L6.143 58.4669C6.04073 58.4347 5.98007 58.3296 6.0033 58.225L7.25676 52.5778C7.2756 52.4929 7.23931 52.4053 7.16597 52.3586L2.28649 49.2518C2.19604 49.1942 2.16464 49.077 2.21417 48.9819L4.88651 43.8516C4.92668 43.7744 4.91431 43.6804 4.85555 43.6163L0.946437 39.3525C0.873974 39.2734 0.873974 39.1521 0.946437 39.0731L4.85555 34.8092C4.91431 34.7451 4.92668 34.6511 4.88651 34.574L2.21417 29.4437C2.16464 29.3486 2.19604 29.2314 2.28649 29.1738L7.16597 26.0669C7.23931 26.0202 7.2756 25.9326 7.25676 25.8478L6.0033 20.2006C5.98007 20.0959 6.04073 19.9908 6.143 19.9586L11.6603 18.2206C11.7433 18.1944 11.801 18.1192 11.8048 18.0323L12.0556 12.2532C12.0603 12.146 12.146 12.0603 12.2532 12.0556L18.0323 11.8048C18.1192 11.801 18.1944 11.7433 18.2206 11.6603L19.9586 6.143C19.9908 6.04073 20.0959 5.98007 20.2006 6.0033L25.8478 7.25676C25.9326 7.2756 26.0202 7.23931 26.0669 7.16597L29.1738 2.28649C29.2314 2.19604 29.3486 2.16464 29.4437 2.21417L34.574 4.88651C34.6511 4.92668 34.7451 4.91431 34.8092 4.85555L39.0731 0.946437Z" fill="url(#paint0_linear_6044_121498)" stroke="white" stroke-width="1.78408"/>
<g clip-path="url(#clip0_6044_121498)">
<path d="M23.1243 36.3771C23.1243 36.3771 29.4363 36.5815 31.0203 36.2749C32.6042 35.9684 35.7242 35.6874 37.9562 36.1217C40.1882 36.5559 40.9322 37.2201 40.9322 37.2201C40.9322 37.2201 39.7322 38.2164 40.7162 39.8258C41.7721 41.5629 43.1641 41.3074 43.1641 41.3074L41.7962 48.8689C41.7962 48.8689 40.4522 48.0003 39.1802 48.7922C38.0762 49.4564 37.7882 51.0913 37.7882 51.0913C37.7882 51.0913 36.9722 50.6571 35.7722 50.4272C35.7722 50.4272 31.9322 49.8396 28.1643 50.6826C26.1483 51.1424 24.9003 51.0658 23.2923 50.8614C21.6843 50.6571 20.6043 50.325 20.6043 50.325C20.6043 50.325 21.2523 48.4857 20.3643 47.0041C19.4764 45.5224 17.4844 45.7523 17.4844 45.7523L18.9724 37.4245C18.9724 37.4245 20.4363 38.4208 21.6603 37.9609C22.8843 37.5011 23.1003 36.3771 23.1003 36.3771H23.1243Z" fill="#7FFF5D"/>
<path d="M21.5903 43.8306C22.2928 43.8306 22.8623 43.2358 22.8623 42.5022C22.8623 41.7686 22.2928 41.1738 21.5903 41.1738C20.8878 41.1738 20.3184 41.7686 20.3184 42.5022C20.3184 43.2358 20.8878 43.8306 21.5903 43.8306Z" fill="#25B208"/>
<path d="M38.8962 45.0695C39.6252 45.0695 40.2161 44.4519 40.2161 43.69C40.2161 42.9282 39.6252 42.3105 38.8962 42.3105C38.1672 42.3105 37.5762 42.9282 37.5762 43.69C37.5762 44.4519 38.1672 45.0695 38.8962 45.0695Z" fill="#25B208"/>
<path d="M35.9434 43.7861C35.3914 46.8516 32.6794 49.0229 29.3435 48.8186C26.2715 48.6397 24.2315 45.7531 24.7835 42.6876C25.3355 39.6222 28.2635 37.4508 31.3354 37.7573C34.4074 38.0639 36.4954 40.7206 35.9434 43.7861Z" fill="#25B208"/>
<path d="M27.9754 43.8875C28.7194 44.5772 29.3194 44.9604 30.0154 45.0882C30.4714 45.1648 30.7354 45.0882 30.7834 44.8327C30.9514 43.9386 27.4474 43.4277 27.8794 40.9753C28.1194 39.6214 29.3674 38.9572 31.0954 39.2893C32.2473 39.5192 32.9673 40.1323 33.4713 40.9498L32.1993 42.0227C31.6713 41.4862 31.2633 41.1797 30.6394 41.0775C30.2074 41.0009 29.9434 41.0775 29.8954 41.3585C29.7754 42.0993 33.2553 42.7124 32.8233 45.0882C32.5833 46.391 31.3833 47.234 29.3674 46.8508C28.5514 46.6975 27.4234 46.0844 26.7754 45.2414L27.9514 43.9131L27.9754 43.8875ZM30.4954 46.0844L29.9914 48.8944L28.6234 48.6134L29.1274 45.8034L30.4954 46.0844ZM30.6154 37.4756L31.9833 37.7566L31.5753 40.0812L30.2074 39.8002L30.6154 37.4756Z" fill="#F2FFEA"/>
<path d="M23.1243 36.3771C23.1243 36.3771 29.4363 36.5815 31.0203 36.2749C32.6042 35.9684 35.7242 35.6874 37.9562 36.1217C40.1882 36.5559 40.9322 37.2201 40.9322 37.2201C40.9322 37.2201 39.7322 38.2164 40.7162 39.8258C41.7721 41.5629 43.1641 41.3074 43.1641 41.3074L41.7962 48.8689C41.7962 48.8689 40.4522 48.0003 39.1802 48.7922C38.0762 49.4564 37.7882 51.0913 37.7882 51.0913C37.7882 51.0913 36.9722 50.6571 35.7722 50.4272C35.7722 50.4272 31.9322 49.8396 28.1643 50.6826C26.1483 51.1424 24.9003 51.0658 23.2923 50.8614C21.6843 50.6571 20.6043 50.325 20.6043 50.325C20.6043 50.325 21.2523 48.4857 20.3643 47.0041C19.4764 45.5224 17.4844 45.7523 17.4844 45.7523L18.9724 37.4245C18.9724 37.4245 20.4363 38.4208 21.6603 37.9609C22.8843 37.5011 23.1003 36.3771 23.1003 36.3771H23.1243Z" fill="#7FFF5D"/>
<path d="M21.5903 43.8306C22.2928 43.8306 22.8623 43.2358 22.8623 42.5022C22.8623 41.7686 22.2928 41.1738 21.5903 41.1738C20.8878 41.1738 20.3184 41.7686 20.3184 42.5022C20.3184 43.2358 20.8878 43.8306 21.5903 43.8306Z" fill="#25B208"/>
<path d="M38.8962 45.0695C39.6252 45.0695 40.2161 44.4519 40.2161 43.69C40.2161 42.9282 39.6252 42.3105 38.8962 42.3105C38.1672 42.3105 37.5762 42.9282 37.5762 43.69C37.5762 44.4519 38.1672 45.0695 38.8962 45.0695Z" fill="#25B208"/>
<path d="M35.9434 43.7861C35.3914 46.8516 32.6794 49.0229 29.3435 48.8186C26.2715 48.6397 24.2315 45.7531 24.7835 42.6876C25.3355 39.6222 28.2635 37.4508 31.3354 37.7573C34.4074 38.0639 36.4954 40.7206 35.9434 43.7861Z" fill="#25B208"/>
<path d="M27.9754 43.8875C28.7194 44.5772 29.3194 44.9604 30.0154 45.0882C30.4714 45.1648 30.7354 45.0882 30.7834 44.8327C30.9514 43.9386 27.4474 43.4277 27.8794 40.9753C28.1194 39.6214 29.3674 38.9572 31.0954 39.2893C32.2473 39.5192 32.9673 40.1323 33.4713 40.9498L32.1993 42.0227C31.6713 41.4862 31.2633 41.1797 30.6394 41.0775C30.2074 41.0009 29.9434 41.0775 29.8954 41.3585C29.7754 42.0993 33.2553 42.7124 32.8233 45.0882C32.5833 46.391 31.3833 47.234 29.3674 46.8508C28.5514 46.6975 27.4234 46.0844 26.7754 45.2414L27.9514 43.9131L27.9754 43.8875ZM30.4954 46.0844L29.9914 48.8944L28.6234 48.6134L29.1274 45.8034L30.4954 46.0844ZM30.6154 37.4756L31.9833 37.7566L31.5753 40.0812L30.2074 39.8002L30.6154 37.4756Z" fill="#F2FFEA"/>
<path d="M22.4315 33.5864C26.8954 33.6886 30.9754 31.2363 38.7993 32.0026C43.4553 32.4624 45.1593 34.6849 45.6873 35.9111C46.2152 37.1373 44.2233 52.0814 44.1273 52.9244C44.0313 53.9462 42.8313 55.4023 41.7513 54.4827C40.7673 53.6652 40.1433 52.0048 36.5673 51.6471C32.9914 51.2895 26.1994 53.4609 23.3915 53.3842C18.7355 53.2565 16.7675 51.545 15.5915 50.6764C14.4155 49.8079 13.7915 48.6328 13.9835 46.6402L15.2795 32.488C15.4475 30.6487 17.8715 30.521 18.3515 31.2363C19.0235 32.2836 20.3675 33.5354 22.4315 33.5864Z" fill="#25B208"/>
<path d="M42.4955 55.2769C42.1355 55.2769 41.7755 55.1492 41.4395 54.8682C41.1995 54.6638 41.0075 54.4595 40.7915 54.204C40.0235 53.361 39.1595 52.4158 36.5195 52.1348C34.5515 51.9305 31.5036 52.5436 28.7916 53.08C26.6556 53.5143 24.6396 53.8975 23.3676 53.8719C18.8797 53.7442 16.7917 52.1859 15.5437 51.2663C15.4477 51.1896 15.3757 51.1386 15.2797 51.0875C13.8397 50.0401 13.2637 48.6095 13.4557 46.5914L14.7757 32.4392C14.8717 31.4429 15.5197 30.6766 16.5277 30.4211C17.3197 30.2168 18.3277 30.3189 18.7597 30.9576C19.1677 31.5707 20.3437 33.0268 22.4557 33.0779C24.1596 33.129 25.8156 32.7713 27.7116 32.3626C30.6876 31.7239 34.0475 31.0087 38.8475 31.494C44.0315 32.0049 45.6874 34.6106 46.1434 35.709C46.5034 36.5265 46.1194 41.0992 44.8234 51.4962C44.7274 52.2881 44.6554 52.8501 44.6314 52.9778C44.5594 53.7442 43.9835 54.7916 43.1435 55.1492C42.9275 55.2514 42.7115 55.2769 42.4955 55.2769ZM35.7035 51.0619C36.0155 51.0619 36.3275 51.0619 36.6155 51.113C39.6395 51.4195 40.7435 52.6202 41.5355 53.4887C41.7275 53.7186 41.8955 53.8975 42.0875 54.0507C42.3035 54.2296 42.5195 54.2807 42.7595 54.1785C43.2395 53.9741 43.5995 53.3099 43.6475 52.8756C43.6475 52.7224 43.7195 52.2115 43.8395 51.3685C45.0154 41.9932 45.4714 36.8586 45.2554 36.1433C44.0315 33.2822 39.9755 32.6691 38.7755 32.5669C34.1195 32.1071 30.8316 32.7969 27.9276 33.41C26.0556 33.8187 24.2556 34.1763 22.4557 34.1508C19.8877 34.0997 18.4477 32.337 17.9677 31.5707C17.8957 31.4685 17.4157 31.2897 16.8157 31.4685C16.4797 31.5707 15.8797 31.8261 15.8317 32.5669L14.4877 46.6936C14.3437 48.3541 14.7517 49.427 15.8797 50.2445C15.9517 50.2955 16.0477 50.3722 16.1437 50.4488C17.2957 51.3174 19.2157 52.7479 23.4156 52.8501C24.5676 52.8756 26.5356 52.4925 28.6236 52.0837C30.9996 51.5984 33.6636 51.0875 35.7035 51.0875V51.0619Z" fill="#0D2B02"/>
<path d="M22.0695 35.5078C22.0695 35.5078 28.3574 35.0991 29.9174 34.6648C31.4774 34.2305 34.5734 33.643 36.8294 33.8729C39.0853 34.1028 39.8773 34.6648 39.8773 34.6648C39.8773 34.6648 38.7733 35.7888 39.8773 37.2704C41.0773 38.8798 42.4453 38.4966 42.4453 38.4966L41.7493 46.1603C41.7493 46.1603 40.3573 45.4195 39.1333 46.3136C38.1013 47.0799 37.9573 48.7148 37.9573 48.7148C37.9573 48.7148 37.0934 48.3572 35.8934 48.255C35.8934 48.255 32.0054 48.0251 28.3334 49.2258C26.3654 49.8644 25.1175 49.941 23.5095 49.8644C21.9015 49.7878 20.7735 49.5834 20.7735 49.5834C20.7735 49.5834 21.2535 47.693 20.2455 46.3136C19.2375 44.9341 17.2695 45.3428 17.2695 45.3428L18.0375 36.9128C18.0375 36.9128 19.5735 37.7558 20.7735 37.1938C21.9735 36.6318 22.0695 35.4823 22.0695 35.4823V35.5078Z" fill="#7FFF5D"/>
<path d="M21.063 43.0972C21.7655 43.0972 22.335 42.5024 22.335 41.7688C22.335 41.0352 21.7655 40.4404 21.063 40.4404C20.3605 40.4404 19.791 41.0352 19.791 41.7688C19.791 42.5024 20.3605 43.0972 21.063 43.0972Z" fill="#25B208"/>
<path d="M38.3923 42.6808C39.1213 42.6808 39.7122 42.0632 39.7122 41.3013C39.7122 40.5395 39.1213 39.9219 38.3923 39.9219C37.6632 39.9219 37.0723 40.5395 37.0723 41.3013C37.0723 42.0632 37.6632 42.6808 38.3923 42.6808Z" fill="#25B208"/>
<path d="M35.4613 41.6619C35.1733 44.7529 32.6773 47.1797 29.3414 47.3075C26.2454 47.4096 23.9894 44.7274 24.2534 41.6363C24.5174 38.5453 27.2534 36.0674 30.3494 36.093C33.4453 36.1185 35.7493 38.5709 35.4613 41.6619Z" fill="#25B208"/>
<path d="M27.5443 42.5333C28.3363 43.1464 28.9603 43.4785 29.6803 43.5551C30.1362 43.6062 30.4002 43.504 30.4242 43.223C30.4962 42.3289 26.9683 42.1246 27.2083 39.6466C27.3283 38.2672 28.5043 37.4753 30.2802 37.6541C31.4322 37.7818 32.2002 38.3183 32.7762 39.0846L31.6002 40.2853C31.0482 39.7999 30.5922 39.5445 29.9683 39.4934C29.5123 39.4423 29.2723 39.57 29.2483 39.851C29.1763 40.5918 32.7042 40.8984 32.4882 43.2997C32.3682 44.628 31.2402 45.5732 29.2003 45.3688C28.3603 45.2922 27.1843 44.8068 26.4883 44.0149L27.5443 42.5844V42.5333ZM30.2322 44.4747L29.9683 47.3358L28.5763 47.2081L28.8403 44.347L30.2322 44.4747ZM29.6083 35.917L31.0002 36.0447L30.7842 38.3949L29.3923 38.2672L29.6083 35.917Z" fill="#F2FFEA"/>
<path d="M22.0695 35.5078C22.0695 35.5078 28.3574 35.0991 29.9174 34.6648C31.4774 34.2305 34.5734 33.643 36.8294 33.8729C39.0853 34.1028 39.8773 34.6648 39.8773 34.6648C39.8773 34.6648 38.7733 35.7888 39.8773 37.2704C41.0773 38.8798 42.4453 38.4966 42.4453 38.4966L41.7493 46.1603C41.7493 46.1603 40.3573 45.4195 39.1333 46.3136C38.1013 47.0799 37.9573 48.7148 37.9573 48.7148C37.9573 48.7148 37.0934 48.3572 35.8934 48.255C35.8934 48.255 32.0054 48.0251 28.3334 49.2258C26.3654 49.8644 25.1175 49.941 23.5095 49.8644C21.9015 49.7878 20.7735 49.5834 20.7735 49.5834C20.7735 49.5834 21.2535 47.693 20.2455 46.3136C19.2375 44.9341 17.2695 45.3428 17.2695 45.3428L18.0375 36.9128C18.0375 36.9128 19.5735 37.7558 20.7735 37.1938C21.9735 36.6318 22.0695 35.4823 22.0695 35.4823V35.5078Z" fill="#7FFF5D"/>
<path d="M21.063 43.0972C21.7655 43.0972 22.335 42.5024 22.335 41.7688C22.335 41.0352 21.7655 40.4404 21.063 40.4404C20.3605 40.4404 19.791 41.0352 19.791 41.7688C19.791 42.5024 20.3605 43.0972 21.063 43.0972Z" fill="#25B208"/>
<path d="M38.3923 42.6808C39.1213 42.6808 39.7122 42.0632 39.7122 41.3013C39.7122 40.5395 39.1213 39.9219 38.3923 39.9219C37.6632 39.9219 37.0723 40.5395 37.0723 41.3013C37.0723 42.0632 37.6632 42.6808 38.3923 42.6808Z" fill="#25B208"/>
<path d="M35.4613 41.6619C35.1733 44.7529 32.6773 47.1797 29.3414 47.3075C26.2454 47.4096 23.9894 44.7274 24.2534 41.6363C24.5174 38.5453 27.2534 36.0674 30.3494 36.093C33.4453 36.1185 35.7493 38.5709 35.4613 41.6619Z" fill="#25B208"/>
<path d="M27.5443 42.5333C28.3363 43.1464 28.9603 43.4785 29.6803 43.5551C30.1362 43.6062 30.4002 43.504 30.4242 43.223C30.4962 42.3289 26.9683 42.1246 27.2083 39.6466C27.3283 38.2672 28.5043 37.4753 30.2802 37.6541C31.4322 37.7818 32.2002 38.3183 32.7762 39.0846L31.6002 40.2853C31.0482 39.7999 30.5922 39.5445 29.9683 39.4934C29.5123 39.4423 29.2723 39.57 29.2483 39.851C29.1763 40.5918 32.7042 40.8984 32.4882 43.2997C32.3682 44.628 31.2402 45.5732 29.2003 45.3688C28.3603 45.2922 27.1843 44.8068 26.4883 44.0149L27.5443 42.5844V42.5333ZM30.2322 44.4747L29.9683 47.3358L28.5763 47.2081L28.8403 44.347L30.2322 44.4747ZM29.6083 35.917L31.0002 36.0447L30.7842 38.3949L29.3923 38.2672L29.6083 35.917Z" fill="#F2FFEA"/>
<path d="M21.5409 31.6536C26.1009 31.296 30.0369 28.3838 38.0768 28.3838C42.8527 28.3838 44.8207 30.4785 45.4687 31.6536C46.1167 32.8287 45.4687 48.2838 45.4687 49.1523C45.4687 50.2252 44.3887 51.809 43.1887 50.966C42.1087 50.2252 41.3407 48.6158 37.6208 48.6158C33.9008 48.6158 27.2049 51.528 24.3489 51.7324C19.5729 52.0645 17.437 50.5318 16.141 49.7654C14.845 48.999 14.125 47.875 14.125 45.8314V31.2449C14.149 29.3545 16.621 28.9713 17.149 29.6611C17.941 30.6573 19.429 31.8069 21.5409 31.6536Z" fill="#25B208"/>
<path d="M23.055 52.2918C19.359 52.2918 17.415 51.1167 16.191 50.3759C16.095 50.3248 15.999 50.2737 15.903 50.1971C14.343 49.2774 13.623 47.8724 13.623 45.8032V31.2423C13.647 30.2205 14.247 29.3775 15.231 29.0198C16.023 28.7133 17.055 28.7388 17.535 29.3264C18.015 29.9139 19.335 31.2934 21.495 31.1146C23.247 30.9868 24.8789 30.4504 26.7989 29.8628C29.7749 28.9176 33.1349 27.8447 38.0788 27.8447C43.4068 27.8447 45.3268 30.3226 45.9028 31.3956C46.3347 32.1875 46.3827 36.8878 46.0228 47.617C45.9988 48.4344 45.9748 49.022 45.9748 49.1497C45.9748 49.9416 45.4708 51.0401 44.6548 51.4999C44.0788 51.8064 43.4788 51.7809 42.9268 51.3977C42.6628 51.2189 42.4468 51.0145 42.2068 50.7846C41.3908 50.0438 40.3828 49.1242 37.6468 49.1242C35.6308 49.1242 32.5589 50.0438 29.8469 50.8612C27.7109 51.4999 25.6949 52.113 24.3989 52.2152C23.919 52.2407 23.463 52.2663 23.031 52.2663L23.055 52.2918ZM16.263 29.8628C16.071 29.8628 15.831 29.8884 15.591 29.9906C15.255 30.1183 14.655 30.4504 14.655 31.2423V45.8032C14.655 47.5148 15.183 48.5621 16.407 49.303C16.503 49.3541 16.599 49.4052 16.695 49.4818C17.943 50.2482 20.055 51.4999 24.3269 51.1933C25.5029 51.1167 27.4709 50.5036 29.5589 49.8905C32.3189 49.0475 35.4628 48.1023 37.6228 48.1023C40.7428 48.1023 41.9428 49.2263 42.8548 50.0182C43.0708 50.2226 43.2628 50.4014 43.4788 50.5292C43.7188 50.708 43.9588 50.708 44.1988 50.5802C44.6548 50.3248 44.9908 49.6095 44.9908 49.1497C44.9908 48.9964 44.9908 48.46 45.0388 47.5914C45.3508 37.8841 45.3748 32.6217 45.0388 31.9065C43.5028 29.122 39.3268 28.8921 38.0788 28.8921C33.2789 28.8921 29.9909 29.9395 27.1109 30.8591C25.2389 31.4466 23.439 32.0342 21.591 32.1619C18.975 32.3663 17.343 30.7058 16.767 29.9906C16.719 29.9395 16.527 29.8628 16.239 29.8628H16.263Z" fill="#0D2B02"/>
<path d="M21.3512 33.6471C21.3512 33.6471 27.7351 32.5998 29.2711 31.9867C30.8071 31.3736 33.903 30.4795 36.231 30.4795C38.559 30.4795 39.423 30.9904 39.423 30.9904C39.423 30.9904 38.415 32.2421 39.687 33.6471C41.055 35.1799 42.423 34.6434 42.423 34.6434V42.537C42.423 42.537 40.935 41.9239 39.759 42.9713C38.775 43.8653 38.775 45.5514 38.775 45.5514C38.775 45.5514 37.863 45.2704 36.615 45.2704C36.615 45.2704 32.631 45.4492 29.0071 47.033C27.0391 47.876 25.7911 48.0804 24.1351 48.1825C22.4791 48.2847 21.3272 48.1825 21.3272 48.1825C21.3272 48.1825 21.6391 46.2155 20.4872 44.8872C19.3352 43.5588 17.3672 44.1974 17.3672 44.1974V35.5375C17.3672 35.5375 19.0232 36.2528 20.1752 35.5375C21.3272 34.8222 21.3272 33.6471 21.3272 33.6471H21.3512Z" fill="#7FFF5D"/>
<path d="M20.9229 41.4813C21.6387 41.4813 22.2189 40.8751 22.2189 40.1273C22.2189 39.3796 21.6387 38.7734 20.9229 38.7734C20.2072 38.7734 19.627 39.3796 19.627 40.1273C19.627 40.8751 20.2072 41.4813 20.9229 41.4813Z" fill="#25B208"/>
<path d="M38.5549 39.2934C39.2972 39.2934 39.8989 38.6644 39.8989 37.8884C39.8989 37.1124 39.2972 36.4834 38.5549 36.4834C37.8127 36.4834 37.2109 37.1124 37.2109 37.8884C37.2109 38.6644 37.8127 39.2934 38.5549 39.2934Z" fill="#25B208"/>
<path d="M35.5827 38.5494C35.5827 41.7425 33.2547 44.4759 29.8467 44.9102C26.7027 45.3189 24.1348 42.841 24.1348 39.6478C24.1348 36.4546 26.6787 33.6702 29.8467 33.3636C33.0147 33.0571 35.5827 35.3306 35.5827 38.5238V38.5494Z" fill="#25B208"/>
<path d="M27.5909 40.2374C28.4548 40.7739 29.1268 41.0549 29.8708 41.0549C30.3508 41.0549 30.5908 40.9272 30.5908 40.6462C30.5908 39.7265 26.9669 39.8798 26.9669 37.3253C26.9669 35.9203 28.0948 35.0006 29.8948 35.0006C31.0948 35.0006 31.9108 35.486 32.5828 36.2013L31.5028 37.5296C30.8788 37.0953 30.4228 36.8654 29.7508 36.8654C29.2948 36.8654 29.0548 37.0187 29.0548 37.2997C29.0548 38.0661 32.6788 38.015 32.6788 40.4674C32.6788 41.8213 31.6228 42.9197 29.5348 42.9197C28.6708 42.9197 27.4229 42.5365 26.6309 41.7957L27.5909 40.2119V40.2374ZM29.0788 33.2891H30.5188V35.7159H29.0788V33.2891ZM30.5188 41.949V44.8867H29.0788V41.949H30.5188Z" fill="#F2FFEA"/>
<path d="M21.5409 31.6536C26.1009 31.296 30.0369 28.3838 38.0768 28.3838C42.8527 28.3838 44.8207 30.4785 45.4687 31.6536C46.1167 32.8287 45.4687 48.2838 45.4687 49.1523C45.4687 50.2252 44.3887 51.809 43.1887 50.966C42.1087 50.2252 41.3407 48.6158 37.6208 48.6158C33.9008 48.6158 27.2049 51.528 24.3489 51.7324C19.5729 52.0645 17.437 50.5318 16.141 49.7654C14.845 48.999 14.125 47.875 14.125 45.8314V31.2449C14.149 29.3545 16.621 28.9713 17.149 29.6611C17.941 30.6573 19.429 31.8069 21.5409 31.6536Z" fill="#25B208"/>
<path d="M23.055 52.2918C19.359 52.2918 17.415 51.1167 16.191 50.3759C16.095 50.3248 15.999 50.2737 15.903 50.1971C14.343 49.2774 13.623 47.8724 13.623 45.8032V31.2423C13.647 30.2205 14.247 29.3775 15.231 29.0198C16.023 28.7133 17.055 28.7388 17.535 29.3264C18.015 29.9139 19.335 31.2934 21.495 31.1146C23.247 30.9868 24.8789 30.4504 26.7989 29.8628C29.7749 28.9176 33.1349 27.8447 38.0788 27.8447C43.4068 27.8447 45.3268 30.3226 45.9028 31.3956C46.3347 32.1875 46.3827 36.8878 46.0228 47.617C45.9988 48.4344 45.9748 49.022 45.9748 49.1497C45.9748 49.9416 45.4708 51.0401 44.6548 51.4999C44.0788 51.8064 43.4788 51.7809 42.9268 51.3977C42.6628 51.2189 42.4468 51.0145 42.2068 50.7846C41.3908 50.0438 40.3828 49.1242 37.6468 49.1242C35.6308 49.1242 32.5589 50.0438 29.8469 50.8612C27.7109 51.4999 25.6949 52.113 24.3989 52.2152C23.919 52.2407 23.463 52.2663 23.031 52.2663L23.055 52.2918ZM16.263 29.8628C16.071 29.8628 15.831 29.8884 15.591 29.9906C15.255 30.1183 14.655 30.4504 14.655 31.2423V45.8032C14.655 47.5148 15.183 48.5621 16.407 49.303C16.503 49.3541 16.599 49.4052 16.695 49.4818C17.943 50.2482 20.055 51.4999 24.3269 51.1933C25.5029 51.1167 27.4709 50.5036 29.5589 49.8905C32.3189 49.0475 35.4628 48.1023 37.6228 48.1023C40.7428 48.1023 41.9428 49.2263 42.8548 50.0182C43.0708 50.2226 43.2628 50.4014 43.4788 50.5292C43.7188 50.708 43.9588 50.708 44.1988 50.5802C44.6548 50.3248 44.9908 49.6095 44.9908 49.1497C44.9908 48.9964 44.9908 48.46 45.0388 47.5914C45.3508 37.8841 45.3748 32.6217 45.0388 31.9065C43.5028 29.122 39.3268 28.8921 38.0788 28.8921C33.2789 28.8921 29.9909 29.9395 27.1109 30.8591C25.2389 31.4466 23.439 32.0342 21.591 32.1619C18.975 32.3663 17.343 30.7058 16.767 29.9906C16.719 29.9395 16.527 29.8628 16.239 29.8628H16.263Z" fill="#0D2B02"/>
<path d="M21.3512 33.6471C21.3512 33.6471 27.7351 32.5998 29.2711 31.9867C30.8071 31.3736 33.903 30.4795 36.231 30.4795C38.559 30.4795 39.423 30.9904 39.423 30.9904C39.423 30.9904 38.415 32.2421 39.687 33.6471C41.055 35.1799 42.423 34.6434 42.423 34.6434V42.537C42.423 42.537 40.935 41.9239 39.759 42.9713C38.775 43.8653 38.775 45.5514 38.775 45.5514C38.775 45.5514 37.863 45.2704 36.615 45.2704C36.615 45.2704 32.631 45.4492 29.0071 47.033C27.0391 47.876 25.7911 48.0804 24.1351 48.1825C22.4791 48.2847 21.3272 48.1825 21.3272 48.1825C21.3272 48.1825 21.6391 46.2155 20.4872 44.8872C19.3352 43.5588 17.3672 44.1974 17.3672 44.1974V35.5375C17.3672 35.5375 19.0232 36.2528 20.1752 35.5375C21.3272 34.8222 21.3272 33.6471 21.3272 33.6471H21.3512Z" fill="#D9FC60"/>
<path d="M20.9229 41.4813C21.6387 41.4813 22.2189 40.8751 22.2189 40.1273C22.2189 39.3796 21.6387 38.7734 20.9229 38.7734C20.2072 38.7734 19.627 39.3796 19.627 40.1273C19.627 40.8751 20.2072 41.4813 20.9229 41.4813Z" fill="#25B208"/>
<path d="M38.5549 39.2934C39.2972 39.2934 39.8989 38.6644 39.8989 37.8884C39.8989 37.1124 39.2972 36.4834 38.5549 36.4834C37.8127 36.4834 37.2109 37.1124 37.2109 37.8884C37.2109 38.6644 37.8127 39.2934 38.5549 39.2934Z" fill="#25B208"/>
<path d="M35.5827 38.5494C35.5827 41.7425 33.2547 44.4759 29.8467 44.9102C26.7027 45.3189 24.1348 42.841 24.1348 39.6478C24.1348 36.4546 26.6787 33.6702 29.8467 33.3636C33.0147 33.0571 35.5827 35.3306 35.5827 38.5238V38.5494Z" fill="#25B208"/>
<path d="M27.5909 40.2374C28.4548 40.7739 29.1268 41.0549 29.8708 41.0549C30.3508 41.0549 30.5908 40.9272 30.5908 40.6462C30.5908 39.7265 26.9669 39.8798 26.9669 37.3253C26.9669 35.9203 28.0948 35.0006 29.8948 35.0006C31.0948 35.0006 31.9108 35.486 32.5828 36.2013L31.5028 37.5296C30.8788 37.0953 30.4228 36.8654 29.7508 36.8654C29.2948 36.8654 29.0548 37.0187 29.0548 37.2997C29.0548 38.0661 32.6788 38.015 32.6788 40.4674C32.6788 41.8213 31.6228 42.9197 29.5348 42.9197C28.6708 42.9197 27.4229 42.5365 26.6309 41.7957L27.5909 40.2119V40.2374ZM29.0788 33.2891H30.5188V35.7159H29.0788V33.2891ZM30.5188 41.949V44.8867H29.0788V41.949H30.5188Z" fill="#F2FFEA"/>
</g>
<path d="M43.0661 49.0497V47.1793C42.2828 47.1153 41.5394 47.0034 40.836 46.8435C40.1326 46.6837 39.5251 46.4759 39.0136 46.2201V42.2395C39.7649 42.5912 40.5882 42.8789 41.4834 43.1028C42.3947 43.3266 43.226 43.4385 43.9773 43.4385C44.6168 43.4385 45.1043 43.3665 45.4401 43.2226C45.7758 43.0788 45.9436 42.831 45.9436 42.4793C45.9436 42.0956 45.6798 41.8079 45.1523 41.616C44.6407 41.4242 43.8894 41.1604 42.8982 40.8247C41.8751 40.457 41.0678 40.0733 40.4763 39.6737C39.9008 39.258 39.4852 38.7625 39.2294 38.187C38.9736 37.6115 38.8457 36.8921 38.8457 36.0288C38.8457 33.519 40.2525 32.0083 43.0661 31.4967V29.4824H47.4303V31.4487C47.9899 31.5127 48.5334 31.6006 49.061 31.7125C49.5885 31.8084 50.0361 31.9123 50.4038 32.0242V36.0288C49.5885 35.6931 48.8371 35.4613 48.1497 35.3334C47.4783 35.2055 46.8628 35.1416 46.3033 35.1416C45.7438 35.1416 45.2322 35.1975 44.7686 35.3094C44.321 35.4053 44.0972 35.6371 44.0972 36.0048C44.0972 36.3086 44.297 36.5404 44.6967 36.7002C45.0963 36.8441 45.7678 37.0519 46.711 37.3237C47.9739 37.6594 48.9251 38.0751 49.5645 38.5706C50.22 39.0502 50.6596 39.6177 50.8834 40.2732C51.1232 40.9126 51.2431 41.648 51.2431 42.4793C51.2431 43.5664 50.9234 44.4936 50.2839 45.2609C49.6604 46.0282 48.7093 46.5798 47.4303 46.9155V49.0497H43.0661Z" fill="#EFF8CE"/>
<path d="M57.8052 47.2272C57.3575 47.2272 56.822 47.1952 56.1985 47.1313C55.591 47.0833 54.9756 46.9954 54.3521 46.8675C53.7446 46.7396 53.2091 46.5718 52.7455 46.364V42.3594C53.1292 42.5352 53.5848 42.6871 54.1123 42.815C54.6399 42.9429 55.1594 43.0468 55.671 43.1267C56.1985 43.1907 56.6302 43.2226 56.9659 43.2226C57.7332 43.2226 58.2847 43.1107 58.6205 42.8869C58.9722 42.6631 59.148 42.3114 59.148 41.8318C59.148 41.3682 59.0201 41.0405 58.7643 40.8487C58.5085 40.6409 58.0529 40.537 57.3975 40.537H52.6735V38.3788L53.0812 31.5447H63.4883L63.1526 35.4773H57.4934L57.3975 37.0839H58.8602C60.7306 37.0839 62.1215 37.5075 63.0327 38.3548C63.9439 39.1861 64.3995 40.4091 64.3995 42.0237C64.3995 43.5584 63.856 44.8133 62.7689 45.7885C61.6978 46.7476 60.0432 47.2272 57.8052 47.2272Z" fill="white"/>
<path d="M64.3994 42.0234C64.3994 40.4089 63.9434 39.1857 63.0322 38.3545C62.121 37.5075 60.7304 37.084 58.8604 37.084H57.3975L57.4932 35.4775H63.1523L63.4883 31.5449H53.0811L52.6738 38.3789V40.5371H57.3975C58.0529 40.5371 58.5089 40.6408 58.7646 40.8486L58.8545 40.9268C59.0503 41.1243 59.1484 41.4264 59.1484 41.832L59.1396 42.0059C59.1011 42.3974 58.9278 42.6909 58.6201 42.8867C58.2844 43.1105 57.7331 43.2227 56.9658 43.2227C56.6301 43.2227 56.1984 43.1909 55.6709 43.127C55.1594 43.047 54.6398 42.9433 54.1123 42.8154C53.5848 42.6875 53.1288 42.5352 52.7451 42.3594V46.3643C53.2087 46.5721 53.7451 46.7393 54.3525 46.8672C54.9758 46.995 55.591 47.0829 56.1982 47.1309C56.6659 47.1788 57.0844 47.2097 57.4531 47.2217L57.8047 47.2275C60.0428 47.2275 61.6975 46.7473 62.7686 45.7881C63.8556 44.8129 64.3994 43.5581 64.3994 42.0234ZM43.9775 41.1953C44.4548 41.3614 44.8465 41.5015 45.1523 41.6162L44.9648 42.1143L44.4746 43.4209C44.3206 43.432 44.1549 43.4385 43.9775 43.4385V41.1953ZM44.4746 43.4209L45.1523 41.6162L44.4961 43.4189C44.4889 43.4195 44.4818 43.4204 44.4746 43.4209ZM44.4961 43.4189L45.1523 41.6162C45.6798 41.808 45.9434 42.0958 45.9434 42.4795L45.9355 42.6064C45.8988 42.8913 45.7339 43.0968 45.4404 43.2227L45.3066 43.2734C45.0883 43.3469 44.818 43.3945 44.4961 43.4189ZM67.2803 42.0234C67.2803 44.3291 66.4227 46.3804 64.6924 47.9326L64.6904 47.9346C62.8647 49.5695 60.3737 50.1074 57.8047 50.1074C57.229 50.1074 56.5899 50.0674 55.9043 49.9971V49.9961C55.1959 49.9373 54.4853 49.8355 53.7734 49.6895C53.7686 49.6885 53.7636 49.6875 53.7588 49.6865C52.9927 49.5252 52.2545 49.3002 51.5674 48.9922C51.3088 48.8763 51.0732 48.7251 50.8652 48.5459C50.6847 48.6622 50.4999 48.7716 50.3105 48.873V49.0498C50.3105 50.6404 49.0213 51.9295 47.4307 51.9297H43.0664C41.6862 51.9297 40.5331 50.9591 40.252 49.6631C40.2339 49.6591 40.2153 49.6564 40.1973 49.6523C39.3245 49.454 38.489 49.1776 37.7256 48.7959C36.7498 48.308 36.1328 47.3107 36.1328 46.2197V42.2393C36.1329 41.4437 36.4621 40.6932 37.0264 40.1553C36.8667 39.9029 36.7224 39.6371 36.5977 39.3564C36.1296 38.3032 35.9649 37.155 35.9648 36.0293C35.9648 34.2118 36.4907 32.4493 37.793 31.0508C38.4797 30.3133 39.2988 29.7686 40.1904 29.3721C40.2485 27.8325 41.5126 26.6016 43.0664 26.6016H47.4307C48.8635 26.6017 50.0478 27.6492 50.2695 29.0195C50.611 29.0947 50.9371 29.1757 51.2422 29.2686C51.2594 29.2738 51.276 29.2816 51.293 29.2871C51.7854 28.8967 52.4073 28.6641 53.0811 28.6641H63.4883C64.2948 28.6641 65.0649 29.0026 65.6104 29.5967C66.1556 30.1907 66.427 30.9866 66.3584 31.79L66.0225 35.7227C65.9849 36.1622 65.8467 36.5698 65.6367 36.9287C66.8201 38.3716 67.2802 40.176 67.2803 42.0234ZM38.8516 36.3457C38.8795 37.0695 39.0058 37.683 39.2295 38.1865C39.4853 38.762 39.9011 39.2582 40.4766 39.6738L40.708 39.8232C41.2728 40.1694 42.0032 40.5025 42.8984 40.8242C43.297 40.9592 43.6565 41.0836 43.9775 41.1953V43.4385L43.6914 43.4336C43.0166 43.4091 42.2806 43.2983 41.4834 43.1025C40.5882 42.8787 39.765 42.5909 39.0137 42.2393V46.2197C39.5252 46.4755 40.1325 46.6839 40.8359 46.8438C41.5393 47.0036 42.2831 47.1157 43.0664 47.1797V49.0498H47.4307V46.915C48.7094 46.5793 49.6608 46.028 50.2842 45.2607C50.9235 44.4935 51.2431 43.5664 51.2432 42.4795C51.2432 41.6484 51.1235 40.9128 50.8838 40.2734C50.66 39.618 50.2199 39.0499 49.5645 38.5703C48.925 38.0748 47.9737 37.6589 46.7109 37.3232C45.7678 37.0515 45.0959 36.8441 44.6963 36.7002C44.2969 36.5403 44.0977 36.3085 44.0977 36.0049C44.0977 35.6831 44.2685 35.4652 44.6113 35.3516L44.7686 35.3096C45.2322 35.1977 45.7442 35.1416 46.3037 35.1416L46.7334 35.1533C47.1739 35.1773 47.646 35.2371 48.1494 35.333C48.8368 35.4609 49.5881 35.6936 50.4033 36.0293V32.0244C50.0357 31.9126 49.5879 31.8088 49.0605 31.7129C48.5332 31.601 47.9899 31.5131 47.4307 31.4492V29.4824H43.0664V31.4971C40.2528 32.0086 38.8457 33.5194 38.8457 36.0293L38.8516 36.3457Z" fill="#191C45"/>
<defs>
<linearGradient id="paint0_linear_6044_121498" x1="39.2128" y1="0.818359" x2="39.2128" y2="77.6072" gradientUnits="userSpaceOnUse">
<stop stop-color="#FED846"/>
<stop offset="1" stop-color="#FFAD3B"/>
</linearGradient>
<clipPath id="clip0_6044_121498">
<rect width="32.8519" height="36" fill="white" transform="translate(11.7734 20.9873)"/>
</clipPath>
</defs>
</svg>
