<svg width="4086" height="546" viewBox="0 0 4086 546" fill="none" xmlns="http://www.w3.org/2000/svg">
<path d="M49.895 175.796C94.867 198.824 133.852 229.571 169.244 262.315C217.01 306.639 252.668 322.612 320.259 297.189C407.409 264.312 458.901 175.131 564.412 179.923C685.756 185.38 772.507 267.107 862.185 326.339C994.839 414.056 1184.71 472.223 1347.16 408.465C1396.26 389.165 1437.64 361.878 1469.17 324.742C1499.11 289.469 1521.86 248.738 1562.04 220.52C1651.19 158.093 1748.98 244.08 1839.99 254.861C1891.35 260.851 1943.38 245.943 1987.28 224.38C2034.38 201.219 2084.28 172.069 2141.23 173.267C2252.19 175.53 2324.71 257.923 2403.74 313.295C2473.33 362.011 2554.36 408.998 2647.36 414.056C2769.64 420.578 2856.12 349.366 2969.08 326.206C3074.19 304.643 3152.3 357.619 3247.3 382.643C3323.27 402.609 3398.84 385.039 3454.19 337.12C3509.41 289.202 3543.34 227.175 3574.74 166.612C3592.57 132.404 3606.14 96.7314 3630.36 65.1853C3653.64 34.7041 3688.5 2.09315 3734.54 0.0965587C3779.51 -1.90003 3808.65 27.2501 3835.66 59.0624C3849.23 91.1409 3864.4 123.752 3901.65 141.455C3923.87 151.97 3946.36 158.492 3969.64 162.219H4085.27V545.697H0V161.953L29.937 168.475L49.895 175.663V175.796Z" fill="#5E69FF"/>
</svg>
